<svg width="168" height="80" viewBox="0 0 168 80" fill="none" xmlns="http://www.w3.org/2000/svg">
<path d="M63.2559 2.82188V1.49487" stroke="black" stroke-width="2" stroke-linecap="round"/>
<path d="M37.5265 1.21021C37.5812 1.21021 38.1434 1.86845 38.795 3.26189C38.9126 3.99709 38.5976 4.78929 38.023 5.2233C37.4483 5.65731 36.6236 5.70912 35.5811 5.31476" stroke="black" stroke-width="2" stroke-linecap="round"/>
<path d="M35.2971 10.8726C35.2971 11.6062 35.5988 26.5668 35.6798 50.557C35.7246 63.797 33.2829 69.1513 31.9452 71.9607C30.7377 74.4966 28.503 76.4878 25.9594 78.0286C23.8552 79.3033 21.6014 78.7544 19.6793 78.1371C18.6077 77.7929 17.5672 76.7328 16.8733 75.7138C15.5759 73.8084 15.8304 71.2937 16.6745 68.5999C17.863 64.8071 23.0505 59.5267 29.4906 53.0141C34.9192 47.5243 44.654 42.48 55.0203 36.6386C58.9732 34.4112 59.7804 32.7236 60.4106 31.3634C63.9487 23.7259 61.4777 12.3792 60.9908 11.0721C60.5785 9.96532 60.3931 18.4679 61.2246 32.0756C62.4541 52.1966 64.4276 66.7289 64.4109 70.1348C64.4087 70.5758 65.7815 65.0441 69.3397 57.0397C78.3388 36.7957 82.5801 26.9827 84.9303 22.1361C86.6371 18.6164 90.1464 46.4112 92.8707 59.5001C93.0887 60.5471 93.2039 61.3306 93.5495 61.2396C97.3473 60.2405 99.07 50.8136 107.304 28.2174C109.237 22.9095 110.03 21.3105 110.923 19.3977C111.366 18.2951 111.791 16.9247 112.229 15.5127" stroke="black" stroke-width="2" stroke-linecap="round"/>
<path d="M1.22949 55.2588C1.25649 55.2588 1.28349 55.2588 26.3841 51.2915C51.4848 47.3242 101.658 39.3896 129.259 34.3934C156.859 29.3973 160.365 27.58 162.622 26.4801C164.879 25.3802 165.78 25.0526 166.293 24.488C166.805 23.9234 166.901 23.1316 167 22.3159" stroke="black" stroke-width="2" stroke-linecap="round"/>
</svg>
